<mxfile host="Electron" agent="Mozilla/5.0 (Macintosh; Intel Mac OS X 10_15_7) AppleWebKit/537.36 (KHTML, like Gecko) draw.io/28.0.6 Chrome/138.0.7204.100 Electron/37.2.3 Safari/537.36" version="28.0.6">
  <diagram name="Page-1" id="rzfA_IgBoHaRFT8K-678">
    <mxGraphModel dx="946" dy="679" grid="1" gridSize="10" guides="1" tooltips="1" connect="1" arrows="1" fold="1" page="1" pageScale="1" pageWidth="850" pageHeight="1100" math="0" shadow="0">
      <root>
        <mxCell id="0" />
        <mxCell id="1" parent="0" />
        <mxCell id="Ib6mR7jJqS3mW5mTtwYL-1" value="" style="shape=cylinder3;whiteSpace=wrap;html=1;boundedLbl=1;backgroundOutline=1;size=15;sketch=1;hachureGap=4;jiggle=2;curveFitting=1;fontFamily=Times New Roman;fillColor=#fff2cc;strokeColor=#d6b656;fontSize=16;" parent="1" vertex="1">
          <mxGeometry x="140" y="270" width="130" height="170" as="geometry" />
        </mxCell>
        <mxCell id="Ib6mR7jJqS3mW5mTtwYL-3" value="VM" style="rounded=1;whiteSpace=wrap;html=1;sketch=1;hachureGap=4;jiggle=2;curveFitting=1;fontFamily=Times New Roman;fillColor=#f8cecc;strokeColor=#b85450;fontSize=16;" parent="1" vertex="1">
          <mxGeometry x="175" y="350" width="55" height="60" as="geometry" />
        </mxCell>
        <mxCell id="Ib6mR7jJqS3mW5mTtwYL-9" value="" style="edgeStyle=orthogonalEdgeStyle;rounded=0;sketch=1;hachureGap=4;jiggle=2;curveFitting=1;orthogonalLoop=1;jettySize=auto;html=1;fontFamily=Times New Roman;startArrow=classic;startFill=1;fontSize=16;" parent="1" source="Ib6mR7jJqS3mW5mTtwYL-2" target="Ib6mR7jJqS3mW5mTtwYL-8" edge="1">
          <mxGeometry relative="1" as="geometry">
            <Array as="points">
              <mxPoint x="430" y="380" />
              <mxPoint x="430" y="380" />
            </Array>
          </mxGeometry>
        </mxCell>
        <mxCell id="Ib6mR7jJqS3mW5mTtwYL-2" value="Cinder/Storage" style="shape=cylinder3;whiteSpace=wrap;html=1;boundedLbl=1;backgroundOutline=1;size=15;sketch=1;hachureGap=4;jiggle=2;curveFitting=1;fontFamily=Times New Roman;fillColor=#d5e8d4;strokeColor=#82b366;fontSize=16;" parent="1" vertex="1">
          <mxGeometry x="500" y="325" width="110" height="110" as="geometry" />
        </mxCell>
        <mxCell id="Ib6mR7jJqS3mW5mTtwYL-4" value="Compute/Host" style="text;html=1;align=center;verticalAlign=middle;whiteSpace=wrap;rounded=0;fontFamily=Times New Roman;fontSize=16;" parent="1" vertex="1">
          <mxGeometry x="160" y="310" width="80" height="30" as="geometry" />
        </mxCell>
        <mxCell id="Ib6mR7jJqS3mW5mTtwYL-10" value="" style="edgeStyle=orthogonalEdgeStyle;rounded=0;sketch=1;hachureGap=4;jiggle=2;curveFitting=1;orthogonalLoop=1;jettySize=auto;html=1;fontFamily=Times New Roman;startArrow=classic;startFill=1;fontSize=16;" parent="1" source="Ib6mR7jJqS3mW5mTtwYL-8" target="Ib6mR7jJqS3mW5mTtwYL-3" edge="1">
          <mxGeometry relative="1" as="geometry" />
        </mxCell>
        <mxCell id="Ib6mR7jJqS3mW5mTtwYL-8" value="encrption" style="ellipse;shape=cloud;whiteSpace=wrap;html=1;sketch=1;hachureGap=4;jiggle=2;curveFitting=1;fontFamily=Times New Roman;fillColor=#dae8fc;strokeColor=#6c8ebf;fontSize=16;" parent="1" vertex="1">
          <mxGeometry x="320" y="340" width="120" height="80" as="geometry" />
        </mxCell>
      </root>
    </mxGraphModel>
  </diagram>
</mxfile>
